<svg width="971" height="604" xmlns="http://www.w3.org/2000/svg" xmlns:xlink="http://www.w3.org/1999/xlink" overflow="hidden"><defs><clipPath id="clip0"><rect x="162" y="51" width="971" height="604"/></clipPath></defs><g clip-path="url(#clip0)" transform="translate(-162 -51)"><g><path d="M272.5 470.5 1129.5 470.5M272.5 363.5 1129.5 363.5M272.5 256.5 1129.5 256.5M272.5 149.5 1129.5 149.5" stroke="#BFBFBF" stroke-linejoin="round" stroke-miterlimit="10" fill="none"/></g><g><path d="M415.5 96.5001 415.5 577.5M558.5 96.5001 558.5 577.5M701.5 96.5001 701.5 577.5M844.5 96.5001 844.5 577.5M987.5 96.5001 987.5 577.5M1129.5 96.5001 1129.5 577.5" stroke="#D9D9D9" stroke-linejoin="round" stroke-miterlimit="10" fill="none"/></g><g><rect x="272.5" y="96.5001" width="857" height="481" stroke="#000000" stroke-linejoin="round" stroke-miterlimit="10" fill="none"/></g><g><path d="M0 0 0.000104987 481" stroke="#000000" stroke-linejoin="round" stroke-miterlimit="10" fill="none" fill-rule="evenodd" transform="matrix(1 0 0 -1 272.5 577.5)"/></g><g><path d="M266.5 577.5 272.5 577.5M266.5 470.5 272.5 470.5M266.5 363.5 272.5 363.5M266.5 256.5 272.5 256.5M266.5 149.5 272.5 149.5" stroke="#000000" stroke-linejoin="round" stroke-miterlimit="10" fill="none"/></g><g><path d="M272.5 577.5 1129.5 577.5" stroke="#000000" stroke-linejoin="round" stroke-miterlimit="10" fill="none" fill-rule="evenodd"/></g><g><path d="M272.5 577.5 272.5 583.5M415.5 577.5 415.5 583.5M558.5 577.5 558.5 583.5M701.5 577.5 701.5 583.5M844.5 577.5 844.5 583.5M987.5 577.5 987.5 583.5M1129.5 577.5 1129.5 583.5" stroke="#000000" stroke-linejoin="round" stroke-miterlimit="10" fill="none"/></g><g><path d="M344.5 278.5 487.5 374.5 629.5 379.5 772.5 406.5 915.5 379.5 1058.5 400.5" stroke="#4472C4" stroke-width="3" stroke-linecap="round" stroke-linejoin="bevel" stroke-miterlimit="10" fill="none"/></g><g><path d="M350.835 278.056C350.835 281.737 347.851 284.722 344.169 284.722 340.487 284.722 337.502 281.737 337.502 278.056 337.502 274.374 340.487 271.389 344.169 271.389 347.851 271.389 350.835 274.374 350.835 278.056Z" stroke="#4472C4" stroke-linejoin="round" stroke-miterlimit="10" fill="#4472C4"/><path d="M493.669 374.222C493.669 377.904 490.684 380.889 487.002 380.889 483.32 380.889 480.335 377.904 480.335 374.222 480.335 370.54 483.32 367.555 487.002 367.555 490.684 367.555 493.669 370.54 493.669 374.222Z" stroke="#4472C4" stroke-linejoin="round" stroke-miterlimit="10" fill="#4472C4"/><path d="M636.502 379.555C636.502 383.237 633.517 386.222 629.835 386.222 626.153 386.222 623.169 383.237 623.169 379.555 623.169 375.874 626.153 372.889 629.835 372.889 633.517 372.889 636.502 375.874 636.502 379.555Z" stroke="#4472C4" stroke-linejoin="round" stroke-miterlimit="10" fill="#4472C4"/><path d="M922.335 379.555C922.335 383.237 919.351 386.222 915.669 386.222 911.987 386.222 909.002 383.237 909.002 379.555 909.002 375.874 911.987 372.889 915.669 372.889 919.351 372.889 922.335 375.874 922.335 379.555Z" stroke="#4472C4" stroke-linejoin="round" stroke-miterlimit="10" fill="#4472C4"/></g><g><path d="M772.5 396.5 782.5 416.5 762.5 416.5Z" stroke="#FF0000" stroke-linejoin="round" stroke-miterlimit="10" fill="#FF0000"/></g><g><path d="M1065.5 401C1065.5 404.59 1062.37 407.5 1058.5 407.5 1054.63 407.5 1051.5 404.59 1051.5 401 1051.5 397.41 1054.63 394.5 1058.5 394.5 1062.37 394.5 1065.5 397.41 1065.5 401Z" stroke="#4472C4" stroke-linejoin="round" stroke-miterlimit="10" fill="#4472C4"/></g><g><path d="M344.5 512.5 487.5 544.5 629.5 555.5 772.5 539.5 915.5 523.5 1058.5 518.5" stroke="#ED7D31" stroke-width="3" stroke-linecap="round" stroke-linejoin="round" stroke-miterlimit="10" fill="none"/></g><g><path d="M350.835 513.056C350.835 516.737 347.851 519.722 344.169 519.722 340.487 519.722 337.502 516.737 337.502 513.056 337.502 509.374 340.487 506.389 344.169 506.389 347.851 506.389 350.835 509.374 350.835 513.056Z" stroke="#ED7D31" stroke-linejoin="round" stroke-miterlimit="10" fill="#ED7D31"/><path d="M493.669 545.056C493.669 548.737 490.684 551.722 487.002 551.722 483.32 551.722 480.335 548.737 480.335 545.056 480.335 541.374 483.32 538.389 487.002 538.389 490.684 538.389 493.669 541.374 493.669 545.056Z" stroke="#ED7D31" stroke-linejoin="round" stroke-miterlimit="10" fill="#ED7D31"/><path d="M922.335 523.722C922.335 527.404 919.351 530.389 915.669 530.389 911.987 530.389 909.002 527.404 909.002 523.722 909.002 520.04 911.987 517.056 915.669 517.056 919.351 517.056 922.335 520.04 922.335 523.722Z" stroke="#ED7D31" stroke-linejoin="round" stroke-miterlimit="10" fill="#ED7D31"/><path d="M1065.17 518.389C1065.17 522.071 1062.18 525.056 1058.5 525.056 1054.82 525.056 1051.84 522.071 1051.84 518.389 1051.84 514.707 1054.82 511.722 1058.5 511.722 1062.18 511.722 1065.17 514.707 1065.17 518.389Z" stroke="#ED7D31" stroke-linejoin="round" stroke-miterlimit="10" fill="#ED7D31"/></g><g><path d="M629.5 545.5 639.5 565.5 619.5 565.5Z" stroke="#FF0000" stroke-linejoin="round" stroke-miterlimit="10" fill="#FF0000"/></g><g><path d="M779.5 539.5C779.5 543.366 776.59 546.5 773 546.5 769.41 546.5 766.5 543.366 766.5 539.5 766.5 535.634 769.41 532.5 773 532.5 776.59 532.5 779.5 535.634 779.5 539.5Z" stroke="#ED7D31" stroke-linejoin="round" stroke-miterlimit="10" fill="#ED7D31"/></g><g><path d="M344.5 139.5 487.5 160.5 629.5 160.5 772.5 155.5 915.5 155.5 1058.5 139.5" stroke="#548235" stroke-width="3" stroke-linecap="square" stroke-miterlimit="8" fill="none"/></g><g><path d="M350.835 139.222C350.835 142.904 347.851 145.889 344.169 145.889 340.487 145.889 337.502 142.904 337.502 139.222 337.502 135.54 340.487 132.555 344.169 132.555 347.851 132.555 350.835 135.54 350.835 139.222Z" stroke="#548235" stroke-linejoin="round" stroke-miterlimit="10" fill="#385723"/><path d="M493.669 160.555C493.669 164.237 490.684 167.222 487.002 167.222 483.32 167.222 480.335 164.237 480.335 160.555 480.335 156.874 483.32 153.889 487.002 153.889 490.684 153.889 493.669 156.874 493.669 160.555Z" stroke="#548235" stroke-linejoin="round" stroke-miterlimit="10" fill="#385723"/><path d="M779.335 155.222C779.335 158.904 776.351 161.889 772.669 161.889 768.987 161.889 766.002 158.904 766.002 155.222 766.002 151.54 768.987 148.555 772.669 148.555 776.351 148.555 779.335 151.54 779.335 155.222Z" stroke="#548235" stroke-linejoin="round" stroke-miterlimit="10" fill="#385723"/><path d="M1065.17 139.222C1065.17 142.904 1062.18 145.889 1058.5 145.889 1054.82 145.889 1051.84 142.904 1051.84 139.222 1051.84 135.54 1054.82 132.555 1058.5 132.555 1062.18 132.555 1065.17 135.54 1065.17 139.222Z" stroke="#548235" stroke-linejoin="round" stroke-miterlimit="10" fill="#385723"/></g><g><path d="M629.5 150.5 639.5 170.5 619.5 170.5Z" stroke="#FF0000" stroke-linejoin="round" stroke-miterlimit="10" fill="#FF0000"/></g><g><path d="M922.5 155C922.5 158.59 919.366 161.5 915.5 161.5 911.634 161.5 908.5 158.59 908.5 155 908.5 151.41 911.634 148.5 915.5 148.5 919.366 148.5 922.5 151.41 922.5 155Z" stroke="#548235" stroke-linejoin="round" stroke-miterlimit="10" fill="#385723"/></g><g><text font-family="Arial,Arial_MSFontService,sans-serif" font-weight="400" font-size="24" transform="translate(315.844 325)">0.216</text></g><g><text font-family="Arial,Arial_MSFontService,sans-serif" font-weight="400" font-size="24" transform="translate(477.972 358)">0.198</text></g><g><text font-family="Arial,Arial_MSFontService,sans-serif" font-weight="400" font-size="24" transform="translate(594.163 371)">0.197</text></g><g><text font-family="Arial,Arial_MSFontService,sans-serif" font-weight="400" font-size="24" transform="translate(746.288 385)">0.192</text></g><g><text font-family="Arial,Arial_MSFontService,sans-serif" font-weight="400" font-size="24" transform="translate(882.855 358)">0.197</text></g><g><text font-family="Arial,Arial_MSFontService,sans-serif" font-weight="400" font-size="24" transform="translate(1019.6 386)">0.193</text></g><g><text font-family="Arial,Arial_MSFontService,sans-serif" font-weight="400" font-size="24" transform="translate(318.807 544)">0.172</text></g><g><text font-family="Arial,Arial_MSFontService,sans-serif" font-weight="400" font-size="24" transform="translate(458.708 528)">0.166</text></g><g><text font-family="Arial,Arial_MSFontService,sans-serif" font-weight="400" font-size="24" transform="translate(597.496 533)">0.164</text></g><g><text font-family="Arial,Arial_MSFontService,sans-serif" font-weight="400" font-size="24" transform="translate(738.509 520)">0.167</text></g><g><text font-family="Arial,Arial_MSFontService,sans-serif" font-weight="400" font-size="24" transform="translate(888.783 510)">0.170</text></g><g><text font-family="Arial,Arial_MSFontService,sans-serif" font-weight="400" font-size="24" transform="translate(1028.49 502)">0.171</text></g><g><text font-family="Arial,Arial_MSFontService,sans-serif" font-weight="400" font-size="24" transform="translate(330.662 167)">0.242</text></g><g><text font-family="Arial,Arial_MSFontService,sans-serif" font-weight="400" font-size="24" transform="translate(460.19 145)">0.239</text></g><g><text font-family="Arial,Arial_MSFontService,sans-serif" font-weight="400" font-size="24" transform="translate(597.496 147)">0.238</text></g><g><text font-family="Arial,Arial_MSFontService,sans-serif" font-weight="400" font-size="24" transform="translate(738.509 142)">0.239</text></g><g><text font-family="Arial,Arial_MSFontService,sans-serif" font-weight="400" font-size="24" transform="translate(885.819 140)">0.239</text></g><g><text font-family="Arial,Arial_MSFontService,sans-serif" font-weight="400" font-size="24" transform="translate(1028.49 123)">0.242</text></g><g><text font-family="Arial,Arial_MSFontService,sans-serif" font-weight="400" font-size="21" transform="translate(195.044 583)">0.160</text></g><g><text font-family="Arial,Arial_MSFontService,sans-serif" font-weight="400" font-size="21" transform="translate(195.044 477)">0.180</text></g><g><text font-family="Arial,Arial_MSFontService,sans-serif" font-weight="400" font-size="21" transform="translate(195.044 370)">0.200</text></g><g><text font-family="Arial,Arial_MSFontService,sans-serif" font-weight="400" font-size="21" transform="translate(195.044 263)">0.220</text></g><g><text font-family="Arial,Arial_MSFontService,sans-serif" font-weight="400" font-size="21" transform="translate(195.044 156)">0.240</text></g><g><text font-family="Arial,Arial_MSFontService,sans-serif" font-weight="400" font-size="21" transform="translate(318.647 609)">None</text></g><g><text font-family="Arial,Arial_MSFontService,sans-serif" font-weight="400" font-size="21" transform="translate(475.155 609)">[3]</text></g><g><text font-family="Arial,Arial_MSFontService,sans-serif" font-weight="400" font-size="21" transform="translate(609.123 609)">[3,7]</text></g><g><text font-family="Arial,Arial_MSFontService,sans-serif" font-weight="400" font-size="21" transform="translate(737.157 609)">[3,7,15]</text></g><g><text font-family="Arial,Arial_MSFontService,sans-serif" font-weight="400" font-size="21" transform="translate(865.191 609)">[3,7,15,27]</text></g><g><text font-family="Arial,Arial_MSFontService,sans-serif" font-weight="400" font-size="21" transform="translate(993.226 609)">[3,7,15,27,43]</text></g><g><rect x="783" y="188" width="313" height="27" stroke="#7F7F7F" stroke-width="2" stroke-linejoin="round" stroke-miterlimit="10" fill="none"/></g><g><path d="M798.5 201.5 824.5 201.5" stroke="#4472C4" stroke-width="3" stroke-linecap="round" stroke-linejoin="bevel" stroke-miterlimit="10" fill="none" fill-rule="evenodd"/></g><g><path d="M817.5 201.5C817.5 204.814 814.814 207.5 811.5 207.5 808.186 207.5 805.5 204.814 805.5 201.5 805.5 198.186 808.186 195.5 811.5 195.5 814.814 195.5 817.5 198.186 817.5 201.5Z" stroke="#4472C4" stroke-linejoin="round" stroke-miterlimit="10" fill="#4472C4"/></g><g><text font-family="Arial,Arial_MSFontService,sans-serif" font-weight="400" font-size="21" transform="translate(827.198 208)">Solar</text></g><g><path d="M891.5 201.5 917.5 201.5" stroke="#ED7D31" stroke-width="3" stroke-linecap="round" stroke-linejoin="round" stroke-miterlimit="10" fill="none" fill-rule="evenodd"/></g><g><path d="M910.5 201.5C910.5 204.814 907.814 207.5 904.5 207.5 901.186 207.5 898.5 204.814 898.5 201.5 898.5 198.186 901.186 195.5 904.5 195.5 907.814 195.5 910.5 198.186 910.5 201.5Z" stroke="#ED7D31" stroke-linejoin="round" stroke-miterlimit="10" fill="#ED7D31"/></g><g><text font-family="Arial,Arial_MSFontService,sans-serif" font-weight="400" font-size="21" transform="translate(920.246 208)">ECL</text></g><g><path d="M976.5 201.5 1002.5 201.5" stroke="#548235" stroke-width="3" stroke-linecap="square" stroke-miterlimit="8" fill="none" fill-rule="evenodd"/></g><g><path d="M995.5 201.5C995.5 204.814 992.814 207.5 989.5 207.5 986.186 207.5 983.5 204.814 983.5 201.5 983.5 198.186 986.186 195.5 989.5 195.5 992.814 195.5 995.5 198.186 995.5 201.5Z" stroke="#548235" stroke-linejoin="round" stroke-miterlimit="10" fill="#385723"/></g><g><text font-family="Arial,Arial_MSFontService,sans-serif" font-weight="400" font-size="21" transform="translate(1004.99 208)">Weather</text></g><text font-family="Arial,Arial_MSFontService,sans-serif" font-weight="700" font-size="27" transform="translate(440.403 85)">MSE of Different Window Sizes Setting</text><text font-family="Arial,Arial_MSFontService,sans-serif" font-weight="400" font-size="24" transform="translate(628.739 633)">Window Size</text><text font-family="Arial,Arial_MSFontService,sans-serif" font-weight="400" font-size="24" transform="matrix(-1.83697e-16 -1 1 -1.83697e-16 192.581 386)">MSE</text></g></svg>