<svg width="1580" height="609" xmlns="http://www.w3.org/2000/svg" xmlns:xlink="http://www.w3.org/1999/xlink" overflow="hidden"><defs><clipPath id="clip0"><rect x="-107" y="48" width="1580" height="609"/></clipPath></defs><g clip-path="url(#clip0)" transform="translate(107 -48)"><g><rect x="-38.5001" y="103.5" width="643" height="458" stroke="#0D0D0D" stroke-linejoin="round" stroke-miterlimit="10" fill="none"/></g><g><rect x="-17" y="434" width="35" height="128" fill="#FF0000"/></g><g><rect x="144" y="519" width="34" height="43" fill="#FF0000"/></g><g><rect x="305" y="293" width="34" height="269" fill="#FF0000"/></g><g><rect x="466" y="174" width="34" height="388" fill="#FF0000"/></g><g><path d="M24 421 59 421 59 562 24 562ZM185 498 219 498 219 562 185 562ZM346 284 380 284 380 562 346 562ZM507 150 541 150 541 562 507 562Z" fill="#FFC000"/></g><g><path d="M65 427 100 427 100 562 65 562ZM226 452 260 452 260 562 226 562ZM387 275 421 275 421 562 387 562ZM548 156 582 156 582 562 548 562Z" fill="#9DC3E6"/></g><g><path d="M0 0 0.000104987 458" stroke="#000000" stroke-linejoin="round" stroke-miterlimit="10" fill="none" fill-rule="evenodd" transform="matrix(1 0 0 -1 -38.5001 561.5)"/></g><g><path d="M-45.5001 561.5-38.5001 561.5M-45.5001 500.5-38.5001 500.5M-45.5001 439.5-38.5001 439.5M-45.5001 378.5-38.5001 378.5M-45.5001 317.5-38.5001 317.5M-45.5001 256.5-38.5001 256.5M-45.5001 195.5-38.5001 195.5M-45.5001 134.5-38.5001 134.5" stroke="#000000" stroke-linejoin="round" stroke-miterlimit="10" fill="none"/></g><g><path d="M-38.5001 561.5 604.5 561.5" stroke="#0D0D0D" stroke-linejoin="round" stroke-miterlimit="10" fill="none" fill-rule="evenodd"/></g><g><path d="M-38.5001 561.5-38.5001 568.5M121.5 561.5 121.5 568.5M282.5 561.5 282.5 568.5M443.5 561.5 443.5 568.5M604.5 561.5 604.5 568.5" stroke="#0D0D0D" stroke-linejoin="round" stroke-miterlimit="10" fill="none"/></g><g><text font-family="Arial,Arial_MSFontService,sans-serif" font-weight="700" font-size="19" transform="translate(-26.8827 424)">0.192</text></g><g><text font-family="Arial,Arial_MSFontService,sans-serif" font-weight="700" font-size="19" transform="translate(133.855 510)">0.164</text></g><g><text font-family="Arial,Arial_MSFontService,sans-serif" font-weight="700" font-size="19" transform="translate(297.259 288)">0.238</text></g><g><text font-family="Arial,Arial_MSFontService,sans-serif" font-weight="700" font-size="19" transform="translate(455.33 165)">0.277</text></g><g><text font-family="Arial,Arial_MSFontService,sans-serif" font-weight="400" font-size="19" transform="translate(18.1567 405)">0.196</text></g><g><text font-family="Arial,Arial_MSFontService,sans-serif" font-weight="400" font-size="19" transform="translate(178.894 488)">0.171</text></g><g><text font-family="Arial,Arial_MSFontService,sans-serif" font-weight="400" font-size="19" transform="translate(338.299 271)">0.241</text></g><g><text font-family="Arial,Arial_MSFontService,sans-serif" font-weight="400" font-size="19" transform="translate(496.37 136)">0.285</text></g><g><text font-family="Arial,Arial_MSFontService,sans-serif" font-weight="400" font-size="19" transform="translate(59.1961 421)">0.194</text></g><g><text font-family="Arial,Arial_MSFontService,sans-serif" font-weight="400" font-size="19" transform="translate(217.267 445)">0.186</text></g><g><text font-family="Arial,Arial_MSFontService,sans-serif" font-weight="400" font-size="19" transform="translate(379.338 257)">0.244</text></g><g><text font-family="Arial,Arial_MSFontService,sans-serif" font-weight="400" font-size="19" transform="translate(542.743 152)">0.283</text></g><g><text font-family="Arial,Arial_MSFontService,sans-serif" font-weight="400" font-size="21" transform="translate(-104.667 568)">0.15</text></g><g><text font-family="Arial,Arial_MSFontService,sans-serif" font-weight="400" font-size="21" transform="translate(-104.667 507)">0.17</text></g><g><text font-family="Arial,Arial_MSFontService,sans-serif" font-weight="400" font-size="21" transform="translate(-104.667 446)">0.19</text></g><g><text font-family="Arial,Arial_MSFontService,sans-serif" font-weight="400" font-size="21" transform="translate(-104.667 385)">0.21</text></g><g><text font-family="Arial,Arial_MSFontService,sans-serif" font-weight="400" font-size="21" transform="translate(-104.667 324)">0.23</text></g><g><text font-family="Arial,Arial_MSFontService,sans-serif" font-weight="400" font-size="21" transform="translate(-104.667 263)">0.25</text></g><g><text font-family="Arial,Arial_MSFontService,sans-serif" font-weight="400" font-size="21" transform="translate(-104.667 202)">0.27</text></g><g><text font-family="Arial,Arial_MSFontService,sans-serif" font-weight="400" font-size="21" transform="translate(-104.667 141)">0.29</text></g><g><text font-family="Arial,Arial_MSFontService,sans-serif" font-weight="400" font-size="24" transform="translate(13.4967 598)">Solar</text></g><g><text font-family="Arial,Arial_MSFontService,sans-serif" font-weight="400" font-size="24" transform="translate(178.904 598)">ECL</text></g><g><text font-family="Arial,Arial_MSFontService,sans-serif" font-weight="400" font-size="24" transform="translate(317.635 598)">Weather</text></g><g><text font-family="Arial,Arial_MSFontService,sans-serif" font-weight="400" font-size="24" transform="translate(484.39 598)">ETTm2</text></g><g><text font-family="Arial,Arial_MSFontService,sans-serif" font-weight="400" font-size="27" transform="translate(263.3 95)">MSE</text></g><g><rect x="692.5" y="103.5" width="643" height="458" stroke="#0D0D0D" stroke-linejoin="round" stroke-miterlimit="10" fill="none"/></g><g><rect x="715" y="521" width="34" height="41" fill="#FF0000"/></g><g><rect x="875" y="511" width="35" height="51" fill="#FF0000"/></g><g><rect x="1036" y="479" width="34" height="83" fill="#FF0000"/></g><g><rect x="1197" y="232" width="34" height="330" fill="#FF0000"/></g><g><path d="M756 484 790 484 790 562 756 562ZM916 470 951 470 951 562 916 562ZM1077 466 1111 466 1111 562 1077 562ZM1238 191 1272 191 1272 562 1238 562Z" fill="#FFC000"/></g><g><path d="M797 456 831 456 831 562 797 562ZM957 397 992 397 992 562 957 562ZM1118 447 1152 447 1152 562 1118 562ZM1279 214 1313 214 1313 562 1279 562Z" fill="#8FAADC"/></g><g><path d="M0 0 0.000104987 458" stroke="#000000" stroke-linejoin="round" stroke-miterlimit="10" fill="none" fill-rule="evenodd" transform="matrix(1 0 0 -1 692.5 561.5)"/></g><g><path d="M686.5 561.5 692.5 561.5M686.5 470.5 692.5 470.5M686.5 378.5 692.5 378.5M686.5 287.5 692.5 287.5M686.5 195.5 692.5 195.5M686.5 103.5 692.5 103.5" stroke="#000000" stroke-linejoin="round" stroke-miterlimit="10" fill="none"/></g><g><path d="M692.5 561.5 1335.5 561.5" stroke="#0D0D0D" stroke-linejoin="round" stroke-miterlimit="10" fill="none" fill-rule="evenodd"/></g><g><path d="M692.5 561.5 692.5 568.5M853.5 561.5 853.5 568.5M1013.5 561.5 1013.5 568.5M1174.5 561.5 1174.5 568.5M1335.5 561.5 1335.5 568.5" stroke="#0D0D0D" stroke-linejoin="round" stroke-miterlimit="10" fill="none"/></g><g><text font-family="Arial,Arial_MSFontService,sans-serif" font-weight="700" font-size="19" transform="translate(705.76 511)">0.259</text></g><g><text font-family="Arial,Arial_MSFontService,sans-serif" font-weight="700" font-size="19" transform="translate(869.165 502)">0.261</text></g><g><text font-family="Arial,Arial_MSFontService,sans-serif" font-weight="700" font-size="19" transform="translate(1024.57 470)">0.268</text></g><g><text font-family="Arial,Arial_MSFontService,sans-serif" font-weight="700" font-size="19" transform="translate(1190.64 223)">0.322</text></g><g><text font-family="Arial,Arial_MSFontService,sans-serif" font-weight="400" font-size="19" transform="translate(745.467 474)">0.267</text></g><g><text font-family="Arial,Arial_MSFontService,sans-serif" font-weight="400" font-size="19" transform="translate(907.538 461)">0.270</text></g><g><text font-family="Arial,Arial_MSFontService,sans-serif" font-weight="400" font-size="19" transform="translate(1070.94 456)">0.271</text></g><g><text font-family="Arial,Arial_MSFontService,sans-serif" font-weight="400" font-size="19" transform="translate(1231.68 181)">0.331</text></g><g><text font-family="Arial,Arial_MSFontService,sans-serif" font-weight="400" font-size="19" transform="translate(790.506 447)">0.273</text></g><g><text font-family="Arial,Arial_MSFontService,sans-serif" font-weight="400" font-size="19" transform="translate(951.244 387)">0.286</text></g><g><text font-family="Arial,Arial_MSFontService,sans-serif" font-weight="400" font-size="19" transform="translate(1111.98 438)">0.275</text></g><g><text font-family="Arial,Arial_MSFontService,sans-serif" font-weight="400" font-size="19" transform="translate(1272.72 204)">0.326</text></g><g><text font-family="Arial,Arial_MSFontService,sans-serif" font-weight="400" font-size="21" transform="translate(626.643 568)">0.25</text></g><g><text font-family="Arial,Arial_MSFontService,sans-serif" font-weight="400" font-size="21" transform="translate(626.643 477)">0.27</text></g><g><text font-family="Arial,Arial_MSFontService,sans-serif" font-weight="400" font-size="21" transform="translate(626.643 385)">0.29</text></g><g><text font-family="Arial,Arial_MSFontService,sans-serif" font-weight="400" font-size="21" transform="translate(626.643 293)">0.31</text></g><g><text font-family="Arial,Arial_MSFontService,sans-serif" font-weight="400" font-size="21" transform="translate(626.643 202)">0.33</text></g><g><text font-family="Arial,Arial_MSFontService,sans-serif" font-weight="400" font-size="21" transform="translate(626.643 110)">0.35</text></g><g><text font-family="Arial,Arial_MSFontService,sans-serif" font-weight="400" font-size="24" transform="translate(744.807 598)">Solar</text></g><g><text font-family="Arial,Arial_MSFontService,sans-serif" font-weight="400" font-size="24" transform="translate(910.214 598)">ECL</text></g><g><text font-family="Arial,Arial_MSFontService,sans-serif" font-weight="400" font-size="24" transform="translate(1048.95 598)">Weather</text></g><g><text font-family="Arial,Arial_MSFontService,sans-serif" font-weight="400" font-size="24" transform="translate(1215.7 598)">ETTm2</text></g><g><text font-family="Arial,Arial_MSFontService,sans-serif" font-weight="400" font-size="27" transform="translate(990.61 94)">MAE</text></g><rect x="301" y="605" width="697" height="45" stroke="#7F7F7F" stroke-width="2" stroke-miterlimit="8" fill="none"/><rect x="352" y="619" width="51" height="19" fill="#FF0000"/><rect x="547" y="620" width="51" height="19" fill="#FFC000"/><rect x="783" y="620" width="51" height="19" fill="#9DC3E6"/><text font-family="Arial,Arial_MSFontService,sans-serif" font-weight="700" font-size="21" transform="translate(409.712 638)">Local Linear</text><text font-family="Arial,Arial_MSFontService,sans-serif" font-weight="700" font-size="21" transform="translate(604.615 638)">Average Pooling</text><text font-family="Arial,Arial_MSFontService,sans-serif" font-weight="700" font-size="21" transform="translate(840.126 638)">Convolution</text></g></svg>